<svg xmlns="http://www.w3.org/2000/svg" xmlns:xlink="http://www.w3.org/1999/xlink" width="50" zoomAndPan="magnify" viewBox="0 0 375 374.999991" height="50" preserveAspectRatio="xMidYMid meet" version="1.0"><defs><g/><clipPath id="e675121d18"><path d="M 0 0 L 374.84375 0 L 374.84375 375 L 0 375 Z M 0 0 " clip-rule="nonzero"/></clipPath><clipPath id="f8102041bb"><path d="M 53.550781 316.199219 L 61.199219 316.199219 L 61.199219 323.550781 L 53.550781 323.550781 Z M 321.449219 323.550781 L 321.449219 316.199219 L 313.800781 316.199219 L 313.800781 323.550781 Z M 367.351562 183.824219 C 363.523438 183.824219 355.875 183.824219 352.050781 183.824219 L 352.050781 176.476562 C 345.257812 176.476562 335.890625 176.476562 329.101562 176.476562 L 329.101562 169.125 C 325.277344 169.125 317.625 169.125 313.800781 169.125 L 313.800781 161.773438 L 306.152344 161.773438 L 306.152344 154.425781 L 298.5 154.425781 C 298.5 147.898438 298.5 138.898438 298.5 132.375 L 290.851562 132.375 C 290.851562 123.148438 290.851562 112.199219 290.851562 102.976562 L 298.5 102.976562 C 298.5 99.300781 298.5 91.949219 298.5 88.273438 L 306.152344 88.273438 C 306.152344 84.601562 306.152344 77.25 306.152344 73.574219 L 313.800781 73.574219 C 313.800781 69.898438 313.800781 62.550781 313.800781 58.875 L 306.152344 58.875 L 306.152344 66.226562 L 298.5 66.226562 L 298.5 73.5 L 290.851562 73.5 L 290.851562 80.851562 C 287.027344 80.851562 279.375 80.851562 275.550781 80.851562 L 275.550781 88.199219 C 268.761719 88.199219 259.394531 88.199219 252.601562 88.199219 L 252.601562 95.550781 C 248.777344 95.550781 241.128906 95.550781 237.300781 95.550781 L 237.300781 88.199219 C 233.476562 88.199219 225.828125 88.199219 222.003906 88.199219 L 222.003906 80.851562 L 214.351562 80.851562 C 214.351562 77.175781 214.351562 69.824219 214.351562 66.148438 L 206.703125 66.148438 C 206.703125 59.625 206.703125 50.625 206.703125 44.101562 L 199.054688 44.101562 C 199.054688 37.574219 199.054688 28.574219 199.054688 22.050781 L 191.402344 22.050781 C 191.402344 15.523438 191.402344 6.523438 191.402344 0 L 183.753906 0 C 183.753906 6.523438 183.753906 15.523438 183.753906 22.050781 L 176.101562 22.050781 C 176.101562 28.574219 176.101562 37.574219 176.101562 44.101562 L 168.453125 44.101562 C 168.453125 50.625 168.453125 59.625 168.453125 66.148438 L 160.804688 66.148438 C 160.804688 69.824219 160.804688 77.175781 160.804688 80.851562 L 153.152344 80.851562 L 153.152344 88.199219 C 149.328125 88.199219 141.679688 88.199219 137.855469 88.199219 L 137.855469 95.550781 C 134.027344 95.550781 126.378906 95.550781 122.554688 95.550781 L 122.554688 88.199219 C 115.761719 88.199219 106.394531 88.199219 99.605469 88.199219 L 99.605469 80.851562 C 95.78125 80.851562 88.128906 80.851562 84.304688 80.851562 L 84.304688 73.5 L 76.5 73.5 L 76.5 66.148438 L 68.847656 66.148438 L 68.847656 58.800781 L 61.199219 58.800781 C 61.199219 62.476562 61.199219 69.824219 61.199219 73.5 L 68.847656 73.5 C 68.847656 77.175781 68.847656 84.523438 68.847656 88.199219 L 76.5 88.199219 C 76.5 91.875 76.5 99.226562 76.5 102.898438 L 84.148438 102.898438 C 84.148438 112.125 84.148438 123.074219 84.148438 132.300781 L 76.5 132.300781 C 76.5 138.824219 76.5 147.824219 76.5 154.351562 L 68.847656 154.351562 L 68.847656 161.699219 L 61.199219 161.699219 L 61.199219 169.050781 C 57.375 169.050781 49.722656 169.050781 45.898438 169.050781 L 45.898438 176.398438 C 39.109375 176.398438 29.742188 176.398438 22.949219 176.398438 L 22.949219 183.75 C 16.160156 183.75 6.792969 183.75 0 183.75 L 0 191.101562 C 6.792969 191.101562 16.160156 191.101562 22.949219 191.101562 L 22.949219 198.449219 C 29.742188 198.449219 39.109375 198.449219 45.898438 198.449219 L 45.898438 205.800781 C 49.722656 205.800781 57.375 205.800781 61.199219 205.800781 L 61.199219 213.148438 L 68.847656 213.148438 L 68.847656 220.5 L 76.5 220.5 C 76.5 227.023438 76.5 236.023438 76.5 242.550781 L 84.148438 242.550781 C 84.148438 251.773438 84.148438 262.726562 84.148438 271.949219 L 76.5 271.949219 C 76.5 275.625 76.5 282.976562 76.5 286.648438 L 68.847656 286.648438 C 68.847656 290.324219 68.847656 297.675781 68.847656 301.351562 L 61.199219 301.351562 C 61.199219 305.023438 61.199219 312.375 61.199219 316.050781 L 68.847656 316.050781 L 68.847656 308.699219 L 76.5 308.699219 L 76.5 301.5 L 84.148438 301.5 L 84.148438 294.148438 C 87.972656 294.148438 95.625 294.148438 99.449219 294.148438 L 99.449219 286.800781 C 106.238281 286.800781 115.605469 286.800781 122.398438 286.800781 L 122.398438 279.449219 C 126.222656 279.449219 133.871094 279.449219 137.699219 279.449219 L 137.699219 286.800781 C 141.523438 286.800781 149.171875 286.800781 152.996094 286.800781 L 152.996094 294.148438 L 160.648438 294.148438 C 160.648438 297.824219 160.648438 305.175781 160.648438 308.851562 L 168.296875 308.851562 C 168.296875 315.375 168.296875 324.375 168.296875 330.898438 L 175.945312 330.898438 C 175.945312 337.425781 175.945312 346.425781 175.945312 352.949219 L 183.597656 352.949219 C 183.597656 359.476562 183.597656 368.476562 183.597656 375 L 191.246094 375 C 191.246094 368.476562 191.246094 359.476562 191.246094 352.949219 L 198.898438 352.949219 C 198.898438 346.425781 198.898438 337.425781 198.898438 330.898438 L 206.546875 330.898438 C 206.546875 324.375 206.546875 315.375 206.546875 308.851562 L 214.195312 308.851562 C 214.195312 305.175781 214.195312 297.824219 214.195312 294.148438 L 221.847656 294.148438 L 221.847656 286.800781 C 225.671875 286.800781 233.320312 286.800781 237.144531 286.800781 L 237.144531 279.449219 C 240.972656 279.449219 248.621094 279.449219 252.445312 279.449219 L 252.445312 286.800781 C 259.238281 286.800781 268.605469 286.800781 275.394531 286.800781 L 275.394531 294.148438 C 279.21875 294.148438 286.871094 294.148438 290.695312 294.148438 L 290.695312 301.5 L 298.34375 301.5 L 298.34375 308.851562 L 305.996094 308.851562 L 305.996094 316.199219 L 313.644531 316.199219 C 313.644531 312.523438 313.644531 305.175781 313.644531 301.5 L 305.996094 301.5 C 305.996094 297.824219 305.996094 290.476562 305.996094 286.800781 L 298.34375 286.800781 C 298.34375 283.125 298.34375 275.773438 298.34375 272.101562 L 290.695312 272.101562 C 290.695312 262.875 290.695312 251.925781 290.695312 242.699219 L 298.34375 242.699219 C 298.34375 236.175781 298.34375 227.175781 298.34375 220.648438 L 305.996094 220.648438 L 305.996094 213.300781 L 313.644531 213.300781 L 313.644531 205.949219 C 317.46875 205.949219 325.121094 205.949219 328.945312 205.949219 L 328.945312 198.601562 C 335.734375 198.601562 345.101562 198.601562 351.894531 198.601562 L 351.894531 191.25 C 358.683594 191.25 368.050781 191.25 374.84375 191.25 L 374.84375 183.898438 L 367.351562 183.898438 Z M 53.550781 51.449219 L 53.550781 58.800781 L 61.199219 58.800781 L 61.199219 51.449219 Z M 321.449219 51.449219 L 313.800781 51.449219 L 313.800781 58.800781 L 321.449219 58.800781 Z M 321.449219 51.449219 " clip-rule="nonzero"/></clipPath><linearGradient x1="0.000000000000028422" gradientTransform="matrix(0.75, 0, 0, 0.75, 0.0000045, 0)" y1="250" x2="499.791816" gradientUnits="userSpaceOnUse" y2="250" id="e1afe77a0d"><stop stop-opacity="1" stop-color="rgb(100%, 87.098694%, 34.899902%)" offset="0"/><stop stop-opacity="1" stop-color="rgb(100%, 86.981201%, 34.881592%)" offset="0.0078125"/><stop stop-opacity="1" stop-color="rgb(100%, 86.74469%, 34.843445%)" offset="0.015625"/><stop stop-opacity="1" stop-color="rgb(100%, 86.508179%, 34.806824%)" offset="0.0234375"/><stop stop-opacity="1" stop-color="rgb(100%, 86.273193%, 34.770203%)" offset="0.03125"/><stop stop-opacity="1" stop-color="rgb(100%, 86.036682%, 34.733582%)" offset="0.0390625"/><stop stop-opacity="1" stop-color="rgb(100%, 85.801697%, 34.69696%)" offset="0.046875"/><stop stop-opacity="1" stop-color="rgb(100%, 85.565186%, 34.660339%)" offset="0.0546875"/><stop stop-opacity="1" stop-color="rgb(100%, 85.328674%, 34.623718%)" offset="0.0625"/><stop stop-opacity="1" stop-color="rgb(100%, 85.093689%, 34.587097%)" offset="0.0703125"/><stop stop-opacity="1" stop-color="rgb(100%, 84.857178%, 34.550476%)" offset="0.078125"/><stop stop-opacity="1" stop-color="rgb(100%, 84.620667%, 34.513855%)" offset="0.0859375"/><stop stop-opacity="1" stop-color="rgb(100%, 84.385681%, 34.477234%)" offset="0.09375"/><stop stop-opacity="1" stop-color="rgb(100%, 84.14917%, 34.440613%)" offset="0.101563"/><stop stop-opacity="1" stop-color="rgb(100%, 83.914185%, 34.403992%)" offset="0.109375"/><stop stop-opacity="1" stop-color="rgb(100%, 83.677673%, 34.367371%)" offset="0.117188"/><stop stop-opacity="1" stop-color="rgb(100%, 83.441162%, 34.33075%)" offset="0.125"/><stop stop-opacity="1" stop-color="rgb(100%, 83.206177%, 34.292603%)" offset="0.132813"/><stop stop-opacity="1" stop-color="rgb(100%, 82.969666%, 34.255981%)" offset="0.140625"/><stop stop-opacity="1" stop-color="rgb(100%, 82.73468%, 34.21936%)" offset="0.148438"/><stop stop-opacity="1" stop-color="rgb(100%, 82.498169%, 34.182739%)" offset="0.15625"/><stop stop-opacity="1" stop-color="rgb(100%, 82.261658%, 34.146118%)" offset="0.164063"/><stop stop-opacity="1" stop-color="rgb(100%, 82.026672%, 34.109497%)" offset="0.171875"/><stop stop-opacity="1" stop-color="rgb(100%, 81.790161%, 34.072876%)" offset="0.179688"/><stop stop-opacity="1" stop-color="rgb(100%, 81.55365%, 34.036255%)" offset="0.1875"/><stop stop-opacity="1" stop-color="rgb(100%, 81.318665%, 33.999634%)" offset="0.195313"/><stop stop-opacity="1" stop-color="rgb(100%, 81.082153%, 33.963013%)" offset="0.203125"/><stop stop-opacity="1" stop-color="rgb(100%, 80.847168%, 33.926392%)" offset="0.210938"/><stop stop-opacity="1" stop-color="rgb(100%, 80.610657%, 33.889771%)" offset="0.21875"/><stop stop-opacity="1" stop-color="rgb(100%, 80.374146%, 33.853149%)" offset="0.226563"/><stop stop-opacity="1" stop-color="rgb(100%, 80.13916%, 33.816528%)" offset="0.234375"/><stop stop-opacity="1" stop-color="rgb(100%, 79.902649%, 33.779907%)" offset="0.242188"/><stop stop-opacity="1" stop-color="rgb(100%, 79.666138%, 33.743286%)" offset="0.25"/><stop stop-opacity="1" stop-color="rgb(100%, 79.431152%, 33.705139%)" offset="0.257813"/><stop stop-opacity="1" stop-color="rgb(100%, 79.194641%, 33.668518%)" offset="0.265625"/><stop stop-opacity="1" stop-color="rgb(100%, 78.959656%, 33.631897%)" offset="0.273438"/><stop stop-opacity="1" stop-color="rgb(100%, 78.723145%, 33.595276%)" offset="0.28125"/><stop stop-opacity="1" stop-color="rgb(100%, 78.486633%, 33.558655%)" offset="0.289063"/><stop stop-opacity="1" stop-color="rgb(100%, 78.251648%, 33.522034%)" offset="0.296875"/><stop stop-opacity="1" stop-color="rgb(100%, 78.015137%, 33.485413%)" offset="0.304688"/><stop stop-opacity="1" stop-color="rgb(100%, 77.778625%, 33.448792%)" offset="0.3125"/><stop stop-opacity="1" stop-color="rgb(100%, 77.54364%, 33.41217%)" offset="0.320313"/><stop stop-opacity="1" stop-color="rgb(100%, 77.307129%, 33.375549%)" offset="0.328125"/><stop stop-opacity="1" stop-color="rgb(100%, 77.072144%, 33.338928%)" offset="0.335938"/><stop stop-opacity="1" stop-color="rgb(100%, 76.835632%, 33.302307%)" offset="0.34375"/><stop stop-opacity="1" stop-color="rgb(100%, 76.599121%, 33.265686%)" offset="0.351563"/><stop stop-opacity="1" stop-color="rgb(100%, 76.364136%, 33.229065%)" offset="0.359375"/><stop stop-opacity="1" stop-color="rgb(100%, 76.127625%, 33.192444%)" offset="0.367188"/><stop stop-opacity="1" stop-color="rgb(100%, 75.891113%, 33.154297%)" offset="0.375"/><stop stop-opacity="1" stop-color="rgb(100%, 75.656128%, 33.117676%)" offset="0.382813"/><stop stop-opacity="1" stop-color="rgb(100%, 75.419617%, 33.081055%)" offset="0.390625"/><stop stop-opacity="1" stop-color="rgb(100%, 75.184631%, 33.044434%)" offset="0.398438"/><stop stop-opacity="1" stop-color="rgb(100%, 74.94812%, 33.007812%)" offset="0.40625"/><stop stop-opacity="1" stop-color="rgb(100%, 74.711609%, 32.971191%)" offset="0.414063"/><stop stop-opacity="1" stop-color="rgb(100%, 74.476624%, 32.93457%)" offset="0.421875"/><stop stop-opacity="1" stop-color="rgb(100%, 74.240112%, 32.897949%)" offset="0.429688"/><stop stop-opacity="1" stop-color="rgb(100%, 74.003601%, 32.861328%)" offset="0.4375"/><stop stop-opacity="1" stop-color="rgb(100%, 73.768616%, 32.824707%)" offset="0.445313"/><stop stop-opacity="1" stop-color="rgb(100%, 73.532104%, 32.788086%)" offset="0.453125"/><stop stop-opacity="1" stop-color="rgb(100%, 73.297119%, 32.751465%)" offset="0.460938"/><stop stop-opacity="1" stop-color="rgb(100%, 73.060608%, 32.714844%)" offset="0.46875"/><stop stop-opacity="1" stop-color="rgb(100%, 72.824097%, 32.678223%)" offset="0.476563"/><stop stop-opacity="1" stop-color="rgb(100%, 72.589111%, 32.641602%)" offset="0.484375"/><stop stop-opacity="1" stop-color="rgb(100%, 72.3526%, 32.60498%)" offset="0.492188"/><stop stop-opacity="1" stop-color="rgb(100%, 72.116089%, 32.566833%)" offset="0.5"/><stop stop-opacity="1" stop-color="rgb(100%, 71.881104%, 32.530212%)" offset="0.507812"/><stop stop-opacity="1" stop-color="rgb(100%, 71.644592%, 32.493591%)" offset="0.515625"/><stop stop-opacity="1" stop-color="rgb(100%, 71.409607%, 32.45697%)" offset="0.523438"/><stop stop-opacity="1" stop-color="rgb(100%, 71.173096%, 32.420349%)" offset="0.53125"/><stop stop-opacity="1" stop-color="rgb(100%, 70.936584%, 32.383728%)" offset="0.539062"/><stop stop-opacity="1" stop-color="rgb(100%, 70.701599%, 32.347107%)" offset="0.546875"/><stop stop-opacity="1" stop-color="rgb(100%, 70.465088%, 32.310486%)" offset="0.554688"/><stop stop-opacity="1" stop-color="rgb(100%, 70.228577%, 32.273865%)" offset="0.5625"/><stop stop-opacity="1" stop-color="rgb(100%, 69.993591%, 32.237244%)" offset="0.570312"/><stop stop-opacity="1" stop-color="rgb(100%, 69.75708%, 32.200623%)" offset="0.578125"/><stop stop-opacity="1" stop-color="rgb(100%, 69.522095%, 32.164001%)" offset="0.585938"/><stop stop-opacity="1" stop-color="rgb(100%, 69.285583%, 32.12738%)" offset="0.59375"/><stop stop-opacity="1" stop-color="rgb(100%, 69.049072%, 32.090759%)" offset="0.601562"/><stop stop-opacity="1" stop-color="rgb(100%, 68.814087%, 32.054138%)" offset="0.609375"/><stop stop-opacity="1" stop-color="rgb(100%, 68.577576%, 32.017517%)" offset="0.617188"/><stop stop-opacity="1" stop-color="rgb(100%, 68.341064%, 31.97937%)" offset="0.625"/><stop stop-opacity="1" stop-color="rgb(100%, 68.106079%, 31.942749%)" offset="0.632812"/><stop stop-opacity="1" stop-color="rgb(100%, 67.869568%, 31.906128%)" offset="0.640625"/><stop stop-opacity="1" stop-color="rgb(100%, 67.634583%, 31.869507%)" offset="0.648438"/><stop stop-opacity="1" stop-color="rgb(100%, 67.398071%, 31.832886%)" offset="0.65625"/><stop stop-opacity="1" stop-color="rgb(100%, 67.16156%, 31.796265%)" offset="0.664062"/><stop stop-opacity="1" stop-color="rgb(100%, 66.926575%, 31.759644%)" offset="0.671875"/><stop stop-opacity="1" stop-color="rgb(100%, 66.690063%, 31.723022%)" offset="0.679688"/><stop stop-opacity="1" stop-color="rgb(100%, 66.453552%, 31.686401%)" offset="0.6875"/><stop stop-opacity="1" stop-color="rgb(100%, 66.218567%, 31.64978%)" offset="0.695312"/><stop stop-opacity="1" stop-color="rgb(100%, 65.982056%, 31.613159%)" offset="0.703125"/><stop stop-opacity="1" stop-color="rgb(100%, 65.74707%, 31.576538%)" offset="0.710938"/><stop stop-opacity="1" stop-color="rgb(100%, 65.510559%, 31.539917%)" offset="0.71875"/><stop stop-opacity="1" stop-color="rgb(100%, 65.274048%, 31.503296%)" offset="0.726562"/><stop stop-opacity="1" stop-color="rgb(100%, 65.039062%, 31.466675%)" offset="0.734375"/><stop stop-opacity="1" stop-color="rgb(100%, 64.802551%, 31.428528%)" offset="0.742188"/><stop stop-opacity="1" stop-color="rgb(100%, 64.56604%, 31.391907%)" offset="0.75"/><stop stop-opacity="1" stop-color="rgb(100%, 64.331055%, 31.355286%)" offset="0.757812"/><stop stop-opacity="1" stop-color="rgb(100%, 64.094543%, 31.318665%)" offset="0.765625"/><stop stop-opacity="1" stop-color="rgb(100%, 63.859558%, 31.282043%)" offset="0.773438"/><stop stop-opacity="1" stop-color="rgb(100%, 63.623047%, 31.245422%)" offset="0.78125"/><stop stop-opacity="1" stop-color="rgb(100%, 63.386536%, 31.208801%)" offset="0.789062"/><stop stop-opacity="1" stop-color="rgb(100%, 63.15155%, 31.17218%)" offset="0.796875"/><stop stop-opacity="1" stop-color="rgb(100%, 62.915039%, 31.135559%)" offset="0.804688"/><stop stop-opacity="1" stop-color="rgb(100%, 62.678528%, 31.098938%)" offset="0.8125"/><stop stop-opacity="1" stop-color="rgb(100%, 62.443542%, 31.062317%)" offset="0.820312"/><stop stop-opacity="1" stop-color="rgb(100%, 62.207031%, 31.025696%)" offset="0.828125"/><stop stop-opacity="1" stop-color="rgb(100%, 61.972046%, 30.989075%)" offset="0.835938"/><stop stop-opacity="1" stop-color="rgb(100%, 61.735535%, 30.952454%)" offset="0.84375"/><stop stop-opacity="1" stop-color="rgb(100%, 61.499023%, 30.915833%)" offset="0.851562"/><stop stop-opacity="1" stop-color="rgb(100%, 61.264038%, 30.879211%)" offset="0.859375"/><stop stop-opacity="1" stop-color="rgb(100%, 61.027527%, 30.841064%)" offset="0.867188"/><stop stop-opacity="1" stop-color="rgb(100%, 60.791016%, 30.804443%)" offset="0.875"/><stop stop-opacity="1" stop-color="rgb(100%, 60.55603%, 30.767822%)" offset="0.882812"/><stop stop-opacity="1" stop-color="rgb(100%, 60.319519%, 30.731201%)" offset="0.890625"/><stop stop-opacity="1" stop-color="rgb(100%, 60.084534%, 30.69458%)" offset="0.898438"/><stop stop-opacity="1" stop-color="rgb(100%, 59.848022%, 30.657959%)" offset="0.90625"/><stop stop-opacity="1" stop-color="rgb(100%, 59.611511%, 30.621338%)" offset="0.914062"/><stop stop-opacity="1" stop-color="rgb(100%, 59.376526%, 30.584717%)" offset="0.921875"/><stop stop-opacity="1" stop-color="rgb(100%, 59.140015%, 30.548096%)" offset="0.929688"/><stop stop-opacity="1" stop-color="rgb(100%, 58.903503%, 30.511475%)" offset="0.9375"/><stop stop-opacity="1" stop-color="rgb(100%, 58.668518%, 30.474854%)" offset="0.945312"/><stop stop-opacity="1" stop-color="rgb(100%, 58.432007%, 30.438232%)" offset="0.953125"/><stop stop-opacity="1" stop-color="rgb(100%, 58.197021%, 30.401611%)" offset="0.960938"/><stop stop-opacity="1" stop-color="rgb(100%, 57.96051%, 30.36499%)" offset="0.96875"/><stop stop-opacity="1" stop-color="rgb(100%, 57.723999%, 30.328369%)" offset="0.976562"/><stop stop-opacity="1" stop-color="rgb(100%, 57.489014%, 30.291748%)" offset="0.984375"/><stop stop-opacity="1" stop-color="rgb(100%, 57.252502%, 30.253601%)" offset="0.992188"/><stop stop-opacity="1" stop-color="rgb(100%, 57.015991%, 30.21698%)" offset="1"/></linearGradient></defs><g clip-path="url(#e675121d18)"><g clip-path="url(#f8102041bb)"><path fill="url(#e1afe77a0d)" d="M 0 0 L 0 375 L 374.84375 375 L 374.84375 0 Z M 0 0 " fill-rule="nonzero"/></g></g><g fill="#ffffff" fill-opacity="1"><g transform="translate(139.506367, 203.62629)"><g><path d="M 4 -4 L 4 -8 L 0 -8 L 0 -12 L 8 -12 L 8 -8 L 20 -8 L 20 -16 L 4 -16 L 4 -20 L 0 -20 L 0 -28 L 4 -28 L 4 -32 L 24 -32 L 24 -28 L 28 -28 L 28 -24 L 20 -24 L 20 -28 L 8 -28 L 8 -20 L 24 -20 L 24 -16 L 28 -16 L 28 -8 L 24 -8 L 24 -4 Z M 4 -4 "/></g></g></g><g fill="#ffffff" fill-opacity="1"><g transform="translate(171.498507, 203.62629)"><g><path d="M 4 -4 L 4 -8 L 0 -8 L 0 -28 L 4 -28 L 4 -32 L 24 -32 L 24 -28 L 28 -28 L 28 -8 L 24 -8 L 24 -4 Z M 8 -8 L 20 -8 L 20 -28 L 8 -28 Z M 8 -8 "/></g></g></g><g fill="#ffffff" fill-opacity="1"><g transform="translate(203.490647, 203.62629)"><g><path d="M 4 -4 L 4 -32 L 12 -32 L 12 -8 L 28 -8 L 28 -4 Z M 4 -4 "/></g></g></g></svg>